<?xml version="1.0" encoding="iso-8859-1"?>
<!-- Uploaded to: SVG Repo, www.svgrepo.com, Generator: SVG Repo Mixer Tools -->
<!DOCTYPE svg PUBLIC "-//W3C//DTD SVG 1.1//EN" "http://www.w3.org/Graphics/SVG/1.1/DTD/svg11.dtd">
<svg version="1.1" id="Capa_1" xmlns="http://www.w3.org/2000/svg" xmlns:xlink="http://www.w3.org/1999/xlink" 
	 viewBox="0 0 211.859 211.859" xml:space="preserve">
<g>
	<path style="fill:#299113;" d="M153.985,146.056v36.525c0,6.088,4.936,11.024,11.024,11.024h20.621
		c6.089,0,11.024-4.937,11.024-11.024v-36.525H153.985z"/>
	<path style="fill:#299113;" d="M15.204,146.056v36.525c0,6.088,4.936,11.024,11.024,11.024H46.85
		c6.088,0,11.024-4.937,11.024-11.024v-36.525H15.204z"/>
	<g>
		<rect x="14.163" y="0" style="fill:#CFCEC7;" width="183.533" height="41.678"/>
		<g>
			<rect x="37.581" y="0" style="fill:#299113;" width="12.463" height="41.678"/>
			<rect x="161.815" y="0" style="fill:#299113;" width="12.463" height="41.678"/>
		</g>
		<rect x="14.163" y="0" style="opacity:0.2;fill:#FFFFFF;" width="183.533" height="20.839"/>
	</g>
	<path style="fill:#FF7526;" d="M46.85,125.451H26.229c-6.088,0-11.024,4.936-11.024,11.024v9.581h42.669v-9.581
		C57.874,130.386,52.938,125.451,46.85,125.451z"/>
	<path style="fill:#FF7526;" d="M165.01,125.451h20.621c6.089,0,11.024,4.936,11.024,11.024v9.581h-42.67v-9.581
		C153.985,130.386,158.921,125.451,165.01,125.451z"/>
	<g>
		<path style="fill:#484E4E;" d="M105.929,68.07c-14.552,0-26.391-11.839-26.391-26.392c0-14.552,11.839-26.391,26.391-26.391
			c14.553,0,26.392,11.839,26.392,26.391C132.321,56.231,120.482,68.07,105.929,68.07z M105.929,26.312
			c-8.473,0-15.367,6.894-15.367,15.366c0,8.474,6.894,15.367,15.367,15.367c8.474,0,15.367-6.893,15.367-15.367
			C121.297,33.206,114.403,26.312,105.929,26.312z"/>
	</g>
	<path style="fill:#3EAD26;" d="M174.97,200.835c0,6.088-4.936,11.024-11.024,11.024H47.914c-6.088,0-11.024-4.937-11.024-11.024
		V52.703c0-6.089,4.935-11.025,11.024-11.025h116.031c6.089,0,11.024,4.936,11.024,11.025V200.835z"/>
	<path style="fill:#FF7526;" d="M174.97,102.484c0,6.089-4.936,11.024-11.024,11.024H47.914c-6.088,0-11.024-4.936-11.024-11.024
		V52.703c0-6.089,4.935-11.025,11.024-11.025h116.031c6.089,0,11.024,4.936,11.024,11.025V102.484z"/>
	<path style="fill:#FF7526;" d="M122.288,146.056H89.572c-6.089,0-11.024,4.936-11.024,11.024v18.271h54.764v-18.271
		C133.311,150.992,128.376,146.056,122.288,146.056z"/>
	<rect x="78.548" y="175.352" style="fill:#299113;" width="54.764" height="36.507"/>
	<g>
		<g>
			<polygon style="fill:#484E4E;" points="57.782,41.678 57.782,133.46 66.05,142.906 74.318,133.46 74.318,41.678 			"/>
			<g>
				<path style="fill:#FFFFFF;" d="M75.268,122.943H56.832c-1.015,0-1.837-0.822-1.837-1.837V102.67
					c0-1.015,0.823-1.837,1.837-1.837h18.436c1.015,0,1.837,0.822,1.837,1.837v18.436C77.105,122.121,76.283,122.943,75.268,122.943
					z M58.67,119.269H73.43v-14.761H58.67V119.269z"/>
			</g>
		</g>
		<g>
			<polygon style="fill:#484E4E;" points="137.541,41.678 137.541,133.46 145.809,142.906 154.077,133.46 154.077,41.678 			"/>
			<g>
				<path style="fill:#FFFFFF;" d="M155.027,122.943h-18.436c-1.016,0-1.838-0.822-1.838-1.837V102.67
					c0-1.015,0.822-1.837,1.838-1.837h18.436c1.014,0,1.837,0.822,1.837,1.837v18.436
					C156.864,122.121,156.041,122.943,155.027,122.943z M138.429,119.269h14.761v-14.761h-14.761V119.269z"/>
			</g>
		</g>
	</g>
	<g>
		<polygon style="fill:#484E4E;" points="97.661,166.417 97.661,197.206 105.93,206.653 114.198,197.206 114.198,166.417 		"/>
		<g>
			<path style="fill:#FFFFFF;" d="M115.147,186.69H96.712c-1.015,0-1.837-0.822-1.837-1.837v-18.436
				c0-1.015,0.823-1.838,1.837-1.838h18.435c1.015,0,1.838,0.823,1.838,1.838v18.436C116.985,185.868,116.162,186.69,115.147,186.69
				z M98.549,183.015h14.761v-14.761H98.549V183.015z"/>
		</g>
	</g>
	<path style="opacity:0.1;fill:#FFFFFF;" d="M105.93,41.678H90.563c0-8.473,6.894-15.366,15.367-15.366h0V15.288h0
		c-14.552,0-26.391,11.839-26.391,26.391H47.914c-6.088,0-11.024,4.936-11.024,11.025v72.748H26.229
		c-1.142,0-2.243,0.174-3.278,0.496c-1.381,0.429-2.645,1.123-3.734,2.021c-0.545,0.449-1.045,0.95-1.494,1.494
		c-0.898,1.089-1.592,2.354-2.022,3.734c-0.322,1.036-0.496,2.137-0.496,3.278v46.107c0,6.088,4.936,11.024,11.024,11.024H36.89
		v7.229c0,6.088,4.935,11.024,11.024,11.024h58.016V41.678z"/>
</g>
</svg>