<?xml version="1.0" encoding="iso-8859-1"?>
<!-- Uploaded to: SVG Repo, www.svgrepo.com, Generator: SVG Repo Mixer Tools -->
<svg height="800px" width="800px" version="1.1" id="Layer_1" xmlns="http://www.w3.org/2000/svg" xmlns:xlink="http://www.w3.org/1999/xlink" 
	 viewBox="0 0 504 504" xml:space="preserve">
<circle style="fill:#324A5E;" cx="252" cy="252" r="252"/>
<path style="fill:#FF7058;" d="M252,150.4c28.4-34.4,67.2-42.4,95.6-31.6c68.4,25.6,84.8,122.8,26,184.4
	C252,429.2,252,429.2,252,429.2s0,0-121.2-126.4c-59.2-61.2-42.8-158.4,25.6-184C184.8,108,223.6,115.6,252,150.4z"/>
<path style="fill:#FFD05B;" d="M362.8,266.8l17.6-11.6c6.8-4.4,8-14.8,2.4-22.8l-56.4-84.8c-5.6-8-15.2-11.2-22-6.8l-17.6,11.6
	c-6.8,4.4-8,14.8-2.4,22.8l56.4,84.8C346,268.4,356,271.2,362.8,266.8z"/>
<path style="fill:#F1543F;" d="M310,194.8l24-16c2.4-1.6,6-0.8,7.6,1.6l16.8,25.6c1.6,2.4,0.8,6-1.6,7.6l-24,16
	c-2.4,1.6-6,0.8-7.6-1.6l-16.8-25.6C306.8,199.6,307.6,196.4,310,194.8z"/>
<g>
	<circle style="fill:#F9B54C;" cx="322.4" cy="167.6" r="5.6"/>
	<circle style="fill:#F9B54C;" cx="304.4" cy="179.6" r="5.6"/>
	<circle style="fill:#F9B54C;" cx="313.2" cy="154" r="5.6"/>
	<circle style="fill:#F9B54C;" cx="295.2" cy="166" r="5.6"/>
	<circle style="fill:#F9B54C;" cx="371.6" cy="242" r="5.2"/>
	<circle style="fill:#F9B54C;" cx="353.6" cy="253.6" r="5.2"/>
	<circle style="fill:#F9B54C;" cx="362.4" cy="228.4" r="5.2"/>
	<circle style="fill:#F9B54C;" cx="344.8" cy="240" r="5.2"/>
</g>
</svg>