<?xml version="1.0" encoding="iso-8859-1"?>
<!-- Uploaded to: SVG Repo, www.svgrepo.com, Generator: SVG Repo Mixer Tools -->
<svg height="800px" width="800px" version="1.1" id="Layer_1" xmlns="http://www.w3.org/2000/svg" xmlns:xlink="http://www.w3.org/1999/xlink" 
	 viewBox="0 0 511.982 511.982" xml:space="preserve">
<g>
	<polygon style="fill:#A0D468;" points="341.332,10.672 170.658,53.326 170.658,501.31 341.332,458.656 	"/>
	<polygon style="fill:#A0D468;" points="170.658,501.31 0,458.656 0,10.672 170.658,53.326 	"/>
	<polygon style="fill:#A0D468;" points="511.982,501.31 341.332,458.656 341.332,10.672 511.982,53.326 	"/>
</g>
<path style="fill:#DA4453;" d="M437.328,287.989c-2.75,0-5.469-1.047-7.562-3.125l-42.654-42.654
	c-4.156-4.172-4.156-10.922,0-15.094c4.156-4.156,10.922-4.156,15.094,0l42.654,42.671c4.156,4.156,4.156,10.922,0,15.077
	C442.781,286.942,440.047,287.989,437.328,287.989z"/>
<path style="fill:#434A54;" d="M309.333,415.984L309.333,415.984c-1.281,0-2.531-0.047-3.75-0.141
	c-5.875-0.469-10.25-5.608-9.797-11.468c0.469-5.875,5.609-10.266,11.484-9.797c0.656,0.047,1.344,0.078,2.062,0.078l0,0
	c12.109,0,23.062-3.437,33.468-10.515c4.875-3.297,11.515-2.031,14.812,2.844c3.312,4.875,2.046,11.499-2.828,14.812
	C340.927,411.219,325.614,415.984,309.333,415.984z M277.553,385.799c-4.718,0-9.054-3.188-10.304-7.969
	c-3.148-12.047-4.727-27.03-4.969-47.201c-0.07-5.891,4.648-10.718,10.539-10.78c0.047,0,0.078,0,0.141,0
	c5.812,0,10.593,4.687,10.655,10.53c0.219,18.124,1.625,31.873,4.281,42.045c1.469,5.703-1.938,11.531-7.625,13.016
	C279.365,385.689,278.459,385.799,277.553,385.799z M379.174,370.924c-1.969,0-3.969-0.547-5.75-1.688
	c-4.953-3.188-6.406-9.781-3.219-14.733c6.906-10.796,13.234-23.702,18.781-38.342c2.094-5.5,8.25-8.281,13.75-6.188
	c5.499,2.078,8.28,8.234,6.187,13.749c-6.062,16.016-13.046,30.249-20.749,42.279C386.127,369.189,382.689,370.924,379.174,370.924z
	 M273.929,296.239c-0.156,0-0.297-0.016-0.438-0.016c-5.891-0.234-10.469-5.188-10.234-11.078l0.289-7.327
	c0.508-12.344,1.023-25.108,1.234-37.374c0.102-5.828,4.859-10.484,10.663-10.484c0.062,0,0.125,0,0.188,0
	c5.891,0.109,10.578,4.969,10.484,10.859c-0.219,12.516-0.75,25.39-1.25,37.858l-0.297,7.312
	C284.334,291.739,279.615,296.239,273.929,296.239z M274.194,206.367c-5.438,0-10.086-4.14-10.609-9.671
	c-1.602-17.187-4.734-30.108-9.555-39.53c-2.688-5.25-0.609-11.671,4.633-14.358c5.242-2.687,11.672-0.609,14.359,4.641
	c6.077,11.874,9.937,27.327,11.812,47.264c0.547,5.859-3.766,11.062-9.625,11.608C274.865,206.351,274.522,206.367,274.194,206.367z
	 M118.925,204.509c-1.781,0-3.594-0.453-5.257-1.391c-5.117-2.922-6.914-9.422-4.008-14.547
	c8.421-14.827,18.288-27.608,29.343-37.983c4.296-4.03,11.046-3.812,15.078,0.484c4.031,4.297,3.812,11.047-0.484,15.078
	c-9.484,8.906-18.023,19.983-25.382,32.952C126.245,202.555,122.644,204.509,118.925,204.509z M184.173,145.432
	c-4.352,0-8.438-2.672-10.015-7c-2.023-5.531,0.828-11.656,6.359-13.688c13.476-4.922,28.108-7.422,43.475-7.422
	c1.726,0,3.453,0.078,5.117,0.203c5.867,0.438,10.273,5.562,9.836,11.422c-0.445,5.875-5.562,10.281-11.438,9.844
	c-1.133-0.078-2.32-0.125-3.515-0.125c-12.867,0-25.03,2.062-36.155,6.125C186.626,145.229,185.392,145.432,184.173,145.432z"/>
<g>
	<path style="fill:#ED5564;" d="M394.658,287.989c-2.734,0-5.453-1.047-7.547-3.125c-4.156-4.155-4.156-10.921,0-15.077
		l42.654-42.671c4.172-4.156,10.938-4.156,15.094,0c4.156,4.172,4.156,10.922,0,15.094l-42.654,42.654
		C400.111,286.942,397.392,287.989,394.658,287.989z"/>
	<path style="fill:#ED5564;" d="M117.331,255.991c0,11.78-9.554,21.343-21.335,21.343s-21.335-9.562-21.335-21.343
		c0-11.781,9.554-21.328,21.335-21.328C107.778,234.663,117.331,244.21,117.331,255.991z"/>
</g>
<path style="fill:#DA4453;" d="M95.996,287.989c-17.648,0-31.999-14.358-31.999-31.998c0-17.641,14.351-32,31.999-32
	s31.999,14.359,31.999,32C127.995,273.631,113.644,287.989,95.996,287.989z M95.996,245.335c-5.882,0-10.664,4.781-10.664,10.656
	c0,5.89,4.781,10.671,10.664,10.671s10.664-4.781,10.664-10.671C106.66,250.116,101.879,245.335,95.996,245.335z"/>
<polygon style="opacity:0.1;fill:#080808;enable-background:new    ;" points="341.332,10.672 170.658,53.326 170.658,501.31 
	341.332,458.656 "/>
</svg>